<?xml version="1.0" standalone="no"?>
<!DOCTYPE svg PUBLIC "-//W3C//DTD SVG 20010904//EN"
 "http://www.w3.org/TR/2001/REC-SVG-20010904/DTD/svg10.dtd">
<svg version="1.0" xmlns="http://www.w3.org/2000/svg"
 width="740.000000pt" height="740.000000pt" viewBox="0 0 740.000000 740.000000"
 preserveAspectRatio="xMidYMid meet">

<g transform="translate(0.000000,740.000000) scale(0.100000,-0.100000)"
fill="#000000" stroke="none">
<path d="M3569 6791 c-71 -22 -169 -105 -211 -178 -19 -34 -42 -59 -63 -69
-46 -22 -70 -51 -71 -88 -1 -17 -7 -46 -15 -64 -12 -29 -12 -37 3 -62 15 -27
16 -34 3 -65 -22 -52 -19 -121 7 -158 14 -19 23 -46 23 -69 0 -35 1 -37 20
-24 29 20 29 39 1 102 -14 31 -26 63 -26 70 0 22 18 16 31 -8 6 -13 28 -40 47
-61 33 -34 37 -43 38 -100 1 -88 1 -87 32 -87 20 0 40 -13 72 -46 101 -104
148 -122 215 -83 19 12 42 19 50 16 25 -10 53 -79 44 -111 -4 -16 -13 -63 -19
-105 -10 -60 -26 -106 -81 -218 -52 -104 -86 -193 -130 -338 -33 -109 -64
-206 -69 -215 -27 -51 -178 -81 -200 -41 -25 48 -5 110 65 201 l46 60 -31 27
c-43 36 -261 281 -334 376 -46 58 -63 74 -72 66 -8 -6 -33 -16 -57 -22 -45
-12 -82 -50 -162 -164 -17 -24 -35 -43 -40 -43 -6 0 -35 32 -65 72 l-55 72 -3
-37 c-4 -41 -8 -44 -39 -22 -18 13 -24 13 -52 -1 -26 -13 -35 -13 -47 -3 -12
10 -18 9 -32 -5 -16 -16 -15 -19 21 -48 20 -16 62 -69 93 -116 33 -50 86 -114
127 -152 145 -133 187 -179 187 -202 0 -13 14 -41 32 -62 39 -48 35 -56 -57
-108 -90 -51 -123 -83 -136 -132 -18 -65 -7 -118 35 -169 33 -41 36 -47 25
-71 -7 -16 -18 -25 -26 -22 -23 9 -43 -6 -43 -33 0 -23 13 -50 52 -103 15 -21
-2 -44 -50 -63 -18 -8 -32 -18 -30 -22 2 -5 22 -45 45 -90 69 -133 74 -228 17
-312 -13 -20 -24 -38 -24 -42 0 -3 27 -14 60 -24 33 -10 60 -21 60 -25 0 -12
-92 -30 -159 -30 -59 0 -73 -4 -107 -29 -79 -56 -94 -107 -69 -236 11 -59 13
-91 6 -98 -7 -7 -5 -21 4 -44 15 -35 11 -121 -7 -156 -6 -12 -5 -23 3 -33 6
-8 9 -17 6 -20 -17 -18 -245 -107 -334 -131 -92 -25 -103 -30 -103 -50 0 -16
6 -23 19 -23 10 0 23 -6 29 -12 15 -21 24 -104 16 -166 -6 -47 -13 -63 -41
-91 -31 -31 -33 -36 -18 -47 9 -7 60 -15 113 -18 53 -4 140 -10 192 -14 l95
-7 6 -200 c3 -110 6 -201 7 -202 1 -1 33 -18 71 -38 38 -20 77 -45 87 -56 17
-19 15 -22 -55 -86 l-72 -66 38 -21 c33 -19 39 -28 46 -71 10 -61 -3 -137 -38
-214 -25 -52 -26 -62 -23 -207 3 -141 4 -153 24 -165 12 -8 63 -43 115 -78 52
-34 121 -77 154 -93 33 -17 75 -41 93 -55 80 -60 364 -196 433 -207 25 -5 55
1 100 18 213 80 513 157 874 225 88 16 221 43 295 60 136 30 483 94 575 106
97 12 226 47 232 62 3 8 -6 35 -20 61 -48 89 -73 263 -48 327 5 11 4 28 -1 38
-11 22 -102 67 -203 101 -44 14 -86 30 -94 35 -15 10 -27 64 -36 178 l-8 82
29 13 c16 6 31 13 33 15 3 2 -5 13 -16 26 -29 31 -48 178 -33 252 4 22 11 75
15 118 5 59 12 83 26 95 10 9 19 21 19 28 0 13 -36 31 -84 39 -20 4 -36 10
-36 14 0 4 15 25 34 48 40 46 40 43 38 231 l-2 142 -29 0 c-31 0 -41 14 -41
59 0 16 -5 42 -10 58 -9 26 -18 32 -63 41 -29 6 -113 16 -187 23 -74 6 -139
15 -144 20 -21 19 15 30 139 39 173 13 171 12 149 147 l-17 100 48 143 c59
178 66 241 35 341 -13 40 -34 96 -47 125 l-23 52 -83 5 c-121 9 -187 18 -193
28 -2 5 3 23 12 41 31 60 46 267 23 324 -6 16 -12 76 -14 134 -2 65 -8 120
-18 145 -25 65 -54 211 -72 365 -9 80 -24 169 -32 198 -8 29 -12 60 -9 68 3 7
2 14 -2 14 -5 0 -23 39 -42 86 -18 48 -51 110 -72 138 -21 28 -38 59 -38 69 0
31 -40 188 -55 218 -18 33 -69 66 -120 77 -24 5 -46 18 -58 35 -23 30 -16 48
11 29 30 -22 43 -25 55 -13 8 8 5 17 -11 34 -39 41 -22 73 50 96 23 8 44 24
55 42 10 16 22 28 28 26 10 -4 10 -15 -1 -117 -6 -54 -5 -56 21 -68 36 -17 43
-7 22 29 -24 42 -22 56 14 97 65 74 85 161 52 225 -27 53 -91 134 -126 161
-40 31 -81 33 -155 7 -36 -13 -55 -15 -59 -7 -4 6 -18 31 -31 56 -31 59 -95
125 -157 161 -44 26 -59 29 -130 28 -44 0 -92 -4 -106 -8z m-799 -2767 c0 -20
48 -41 110 -48 46 -5 63 -2 108 19 51 24 55 24 115 10 34 -7 125 -21 202 -30
267 -30 275 -31 305 -60 75 -72 111 -297 67 -420 -8 -22 -12 -45 -10 -52 2 -6
-6 -17 -17 -23 -18 -9 -31 -9 -64 4 -22 8 -70 20 -106 26 -117 20 -552 130
-573 145 -12 8 -42 18 -67 21 -25 3 -55 14 -67 23 -20 17 -20 20 -6 72 23 86
14 162 -30 247 -29 57 -35 77 -27 87 14 17 60 0 60 -21z m2041 -56 c22 -48 24
-66 23 -190 -1 -102 -6 -147 -19 -181 l-17 -44 -96 -11 c-54 -6 -126 -15 -162
-21 -36 -5 -124 -15 -195 -21 -161 -14 -245 -24 -454 -56 -104 -16 -167 -22
-173 -16 -6 6 -4 56 7 138 21 149 14 207 -36 301 -32 61 -33 75 -3 79 76 12
258 24 354 24 110 0 444 23 580 39 36 5 88 9 116 10 l52 1 23 -52z m-50 -495
c1 -16 4 -74 8 -130 l6 -103 -75 -16 c-41 -9 -84 -18 -95 -22 -11 -3 -27 -6
-35 -7 -52 -3 -281 -46 -299 -55 -9 -5 -83 -18 -166 -30 -82 -12 -155 -26
-162 -32 -7 -5 -17 -7 -23 -3 -6 4 -43 0 -83 -9 -40 -8 -130 -22 -202 -31
-177 -21 -282 -35 -330 -45 -22 -5 -49 -8 -60 -8 -11 0 -39 -5 -63 -11 -24 -6
-47 -9 -51 -6 -5 2 -16 47 -26 100 -14 75 -16 111 -9 172 l9 78 105 16 c58 9
137 19 175 23 250 20 396 36 412 44 10 5 68 13 128 16 153 10 183 13 267 30
40 8 96 15 123 15 46 0 94 5 290 29 39 5 89 10 113 10 39 2 42 0 43 -25z
m-2141 -34 c72 -16 356 -97 397 -114 l31 -13 5 -139 c3 -76 9 -153 12 -170 5
-24 3 -34 -8 -38 -8 -4 -77 18 -153 48 -77 30 -196 74 -266 97 -122 42 -128
45 -128 71 0 15 -7 55 -16 89 -16 65 -12 152 9 178 6 8 21 12 36 8 14 -3 51
-10 81 -17z m39 -384 c67 -25 143 -54 169 -64 26 -10 99 -35 163 -56 l115 -38
93 22 c86 20 103 21 205 11 128 -12 165 -19 180 -32 6 -5 58 -28 115 -51 94
-38 106 -45 113 -72 10 -36 1 -141 -14 -172 -13 -27 -53 -31 -77 -9 -49 45
-313 134 -476 162 -149 26 -524 139 -640 194 -22 10 -52 24 -67 29 -25 10 -28
15 -28 59 0 46 5 62 20 62 4 0 62 -20 129 -45z m2222 -42 c19 -19 20 -25 9
-78 -10 -50 -16 -58 -43 -70 -18 -7 -151 -45 -296 -84 -146 -39 -278 -78 -294
-86 -41 -21 -372 -107 -394 -103 -16 3 -18 12 -15 67 2 35 7 84 11 109 l6 47
65 18 c36 9 187 47 335 83 149 35 315 78 370 94 121 36 212 37 246 3z m86
-281 l-6 -115 -104 -102 c-114 -112 -190 -170 -213 -161 -17 7 -19 81 -3 123
6 15 11 57 12 92 l2 65 85 57 c47 32 114 82 150 112 36 30 69 52 74 49 5 -3 6
-55 3 -120z m-2007 -11 l285 -7 160 -48 c88 -27 170 -50 182 -51 13 -2 63 -17
112 -34 108 -38 126 -38 232 -6 267 81 301 87 481 83 107 -2 172 -8 179 -15
14 -14 13 -293 -1 -307 -6 -6 -62 -5 -152 2 -328 28 -614 42 -953 48 -198 3
-364 9 -370 14 -5 4 -82 11 -170 14 -88 4 -234 14 -325 22 -188 16 -411 19
-425 5 -6 -5 -26 -6 -45 -2 l-35 7 2 134 3 135 87 6 c129 8 428 8 753 0z
m1994 -333 c7 -12 6 -37 -4 -90 -21 -114 -24 -255 -7 -306 11 -32 12 -44 4
-47 -74 -24 -251 -67 -322 -80 -349 -59 -662 -107 -790 -119 -82 -8 -202 -25
-265 -36 -130 -24 -347 -41 -371 -29 -24 12 -32 81 -30 254 1 138 3 154 26
201 17 34 35 55 53 62 36 15 308 59 447 73 61 6 170 19 243 30 158 23 243 24
366 5 152 -24 260 -36 307 -35 40 0 51 7 124 69 l80 69 64 -2 c48 -1 67 -6 75
-19z m-2189 -63 c112 -34 256 -89 323 -123 48 -24 56 -44 41 -105 -8 -36 -10
-102 -6 -223 8 -220 7 -222 -98 -144 -54 39 -152 84 -285 129 -99 33 -140 51
-140 61 0 4 -12 10 -27 13 -16 4 -41 17 -56 29 -37 30 -46 77 -47 236 0 119 1
124 26 149 24 24 30 25 90 19 36 -4 116 -22 179 -41z m2186 -700 c2 -79 -1
-97 -25 -149 -38 -83 -48 -64 -37 65 9 103 36 198 52 182 4 -4 9 -48 10 -98z
m-1892 37 c75 -36 78 -37 186 -35 60 2 146 8 190 15 96 15 582 14 980 -2 149
-6 311 -9 360 -8 l90 3 -2 -174 c-1 -143 -4 -177 -17 -189 -14 -15 -29 -14
-153 2 -196 24 -457 34 -680 25 -105 -4 -220 -4 -255 1 -34 4 -99 9 -143 9
-44 1 -143 6 -220 11 -77 5 -276 10 -441 10 -166 0 -316 3 -334 6 -30 7 -31 9
-24 38 11 41 11 208 0 273 -10 63 -24 59 213 55 l175 -4 75 -36z m2205 -187
c3 -13 3 -62 0 -108 -6 -80 -5 -87 30 -172 29 -73 34 -92 23 -102 -7 -7 -88
-27 -180 -43 -91 -17 -195 -37 -230 -45 -35 -8 -124 -24 -198 -34 -233 -35
-442 -71 -504 -87 -33 -9 -90 -22 -127 -30 -38 -8 -98 -20 -135 -28 -146 -31
-325 -79 -471 -127 -84 -28 -155 -49 -157 -47 -10 10 -25 150 -25 234 0 92 21
182 44 189 63 18 432 103 585 135 l193 40 257 1 c146 1 275 -3 301 -9 175 -40
188 -40 206 -2 7 14 29 60 49 103 42 90 52 97 192 132 127 31 139 31 147 0z
m-2354 -207 c41 -15 138 -57 215 -95 l140 -68 -1 -40 c0 -22 -6 -84 -13 -137
-11 -84 -11 -107 3 -176 9 -43 16 -82 16 -85 0 -13 -38 -7 -50 8 -7 8 -18 15
-24 15 -16 0 -141 72 -309 179 -72 46 -166 101 -207 122 -41 21 -88 50 -104
63 -27 23 -29 29 -34 119 -2 53 -2 102 0 109 4 10 39 13 149 13 129 -1 152 -4
219 -27z"/>
</g>
</svg>
